<svg aria-labelledby="icon-title" role="img" width="300" height="300" xmlns="http://www.w3.org/2000/svg"><title id="icon-title">E-Editiones Icon</title><path d="M244.065 51h.462l1.387.923 2.774-.462c1.233.462 1.85 1.538 1.85 3.23l-.463 1.845.925 2.768v.923l-1.387 1.384h-.925l-2.312-1.845c0 2.768-.77 4.152-2.311 4.152l-2.312-.461-19.42 15.686-17.107 16.609c-2.08 1.46-3.622 3.306-4.624 5.536-.616 0-1.85 1.23-3.699 3.69-3.005 2-5.317 4.46-6.935 7.383-.617 0-3.237 2.614-7.86 7.843l-4.162 5.075c-.847 0-2.697 1.845-5.548 5.536-.463 0-1.233 1.076-2.312 3.23-1.541 0-2.466 1.076-2.774 3.229-1.387.923-3.7 3.537-6.936 7.843-.77 0-1.54 1.077-2.311 3.23-1.31.384-3.006 2.076-5.087 5.075-.77 0-2.311 1.691-4.623 5.074 0 .693-1.85 2.692-5.549 5.998-.23 1.538-1.001 2.307-2.311 2.307 0 1.153-2.158 4.229-6.473 9.227-8.169 9.996-21.732 28.604-40.689 55.824-4.238 7.536-7.937 12.918-11.096 16.148h-.925L79 244.77v-.46l1.85-2.308v-.461c-.771 0-1.234-.615-1.388-1.845 0-.77 2.62-3.384 7.86-7.844.232-1.537.694-2.306 1.388-2.306h.462l.462.461h.463l27.28-36.909 15.72-19.838c3.313-4.46 5.471-6.92 6.473-7.382 0-.846.77-1.768 2.312-2.768 2.697-4.306 4.546-6.459 5.548-6.459 0-.923.77-1.692 2.312-2.307.154-1.076 3.082-4.46 8.785-10.15 0-1.153.77-2.076 2.312-2.768 0-.615 1.233-1.999 3.699-4.152 0-.846.924-1.769 2.774-2.768.693-1.769 2.08-3.307 4.161-4.614 0-1.153 1.233-2.537 3.699-4.152 1.695-3.076 3.082-4.614 4.161-4.614 2.466-3.614 5.086-6.382 7.86-8.304 0-1.076 1.85-3.076 5.549-5.998 0-1.384 3.699-5.228 11.097-11.534 0-1.23 1.079-2.306 3.236-3.23 0-.922 1.08-2.306 3.237-4.151l28.204-28.143h-1.387v-.462l4.624-7.843 2.312-.461zM239 58v1.172h.39l.391-1.172H239zM86.781 243v.781l-.781.781v-.78l.781-.782zM215.065 51l1.849.923 2.774-.462c1.233.462 1.85 1.538 1.85 3.23l-.463 1.845.925 2.768v.923l-1.387 1.384h-.925l-2.312-1.845c0 2.768-.77 4.152-2.311 4.152l-2.312-.461-19.42 15.686-17.107 16.609c-2.08 1.46-3.622 3.306-4.624 5.536-.616 0-1.85 1.23-3.699 3.69-3.005 2-5.317 4.46-6.935 7.383-.617 0-3.237 2.614-7.86 7.843l-4.162 5.075c-.847 0-2.697 1.845-5.548 5.536-.463 0-1.233 1.076-2.312 3.23-1.541 0-2.466 1.076-2.774 3.229-1.387.923-3.7 3.537-6.936 7.843-.77 0-1.54 1.077-2.311 3.23-1.31.384-3.006 2.076-5.087 5.075-.77 0-2.311 1.691-4.623 5.074 0 .693-1.85 2.692-5.549 5.998-.23 1.538-1.001 2.307-2.311 2.307 0 1.153-2.158 4.229-6.473 9.227-8.169 9.996-21.732 28.604-40.689 55.824-4.238 7.536-7.937 12.918-11.096 16.148h-.925L50 244.77l1.85-2.768c-.771-.461-1.234-1.076-1.388-2.306 0-.77 2.62-3.384 7.86-7.844.232-1.537.694-2.306 1.388-2.306l.924.461 27.742-36.909 15.72-19.838c3.314-4.46 5.472-6.92 6.474-7.382 0-.846.77-1.768 2.312-2.768 2.697-4.306 4.546-6.459 5.548-6.459 0-.923.77-1.692 2.312-2.307.154-1.076 3.082-4.46 8.785-10.15 0-1.153.77-2.076 2.312-2.768 0-.615 1.233-1.999 3.699-4.152 0-.846.924-1.769 2.774-2.768.693-1.769 2.08-3.307 4.161-4.614 0-1.153 1.233-2.537 3.699-4.152 1.695-3.076 3.082-4.614 4.161-4.614 2.466-3.614 5.086-6.382 7.86-8.304 0-1.076 1.85-3.076 5.549-5.998 0-1.384 3.699-5.228 11.097-11.534 0-1.23 1.079-2.306 3.236-3.23 0-.922 1.08-2.306 3.237-4.151l28.204-28.143h-1.387l4.624-8.305 2.312-.461zM210 58v1.172h.39l.391-1.172H210zM57.781 243v.781l-.781.781v-.78l.781-.782z" fill="#F5A623"/><path d="M250 192.695c0 1.757-1.136 2.636-3.41 2.636h-51.893a94.947 94.947 0 00-.568 10.546c0 10.106 2.415 17.874 7.244 23.303 4.83 5.43 11.695 8.145 20.597 8.145 4.482 0 8.996-1.193 13.541-3.578 4.546-2.386 8.207-5.43 10.985-9.133l.474-.189c.568 0 1.12.346 1.657 1.036.537.69.805 1.507.805 2.448 0 1.318-2.02 4.064-6.06 8.239-4.041 4.174-8.429 7.36-13.164 9.557-4.735 2.197-9.69 3.295-14.867 3.295-11.364 0-20.928-4.143-28.693-12.429-7.765-8.285-11.648-18.454-11.648-30.506 0-12.303 3.804-22.723 11.411-31.26 7.607-8.537 17.25-12.805 28.93-12.805 9.785 0 18.008 3.186 24.668 9.557S250 184.974 250 192.695zm-18-8.336c0-4.7-1.612-8.603-4.836-11.705-3.225-3.103-7.372-4.654-12.443-4.654-4.82 0-9 2.021-12.537 6.064-3.537 4.043-5.932 9.355-7.184 15.936l26.107-.752c3.944-.063 6.745-.439 8.404-1.128 1.66-.69 2.489-1.943 2.489-3.761zM72.778 137c-1.901 0-3.63-.261-5.185-.784C56.53 133.079 51 126.806 51 117.396c0-12.2 7.605-26.315 22.815-42.347C89.025 59.016 102.679 51 114.778 51c3.975 0 7.216 1.09 9.722 3.267 2.506 2.179 3.76 4.836 3.76 7.973 0 9.759-7.303 19.082-21.908 27.97-14.605 8.887-26.488 13.331-35.648 13.331-1.383 0-2.593-.174-3.63-.523-2.593 4.705-3.889 9.672-3.889 14.9 0 9.062 4.278 13.593 12.834 13.593 8.555 0 19.66-5.838 33.314-17.514 10.544-8.54 19.531-17.6 26.963-27.185 1.556-2.092 2.895-3.137 4.019-3.137 1.123 0 1.685.523 1.685 1.568 0 1.046-.691 2.527-2.074 4.444-9.333 12.373-20.568 23.351-33.704 32.936S81.938 137 72.778 137zM122 62.12c0-2.08-2.212-3.12-6.635-3.12-4.424 0-10.712 3.38-18.865 10.14C85.571 78.153 77.071 87.6 71 97.48c1.04.347 2.168.52 3.383.52 6.592 0 15.395-3.51 26.41-10.53 11.016-7.02 17.911-14.69 20.687-23.01.347-.867.52-1.647.52-2.34z" fill="#100F0F"/></svg>
