<svg aria-labelledby="icon-title" role="img" width="400" height="400" xmlns="http://www.w3.org/2000/svg" xmlns:xlink="http://www.w3.org/1999/xlink"><title id="icon-title">E-Editiones Round Icon</title><defs><circle id="a" cx="201" cy="200" r="200"/></defs><g fill="none" fill-rule="evenodd"><mask id="b" fill="#fff"><use xlink:href="#a"/></mask><use fill="#FFF" xlink:href="#a"/><path d="M295.065 101h.462l1.387.923 2.774-.462c1.233.462 1.85 1.538 1.85 3.23l-.463 1.845.925 2.768v.923l-1.387 1.384h-.925l-2.312-1.845c0 2.768-.77 4.152-2.311 4.152l-2.312-.461-19.42 15.686-17.107 16.609c-2.08 1.46-3.622 3.306-4.624 5.536-.616 0-1.85 1.23-3.699 3.69-3.005 2-5.317 4.46-6.935 7.383-.617 0-3.237 2.614-7.86 7.843l-4.162 5.075c-.847 0-2.697 1.845-5.548 5.536-.463 0-1.233 1.076-2.312 3.23-1.541 0-2.466 1.076-2.774 3.229-1.387.923-3.7 3.537-6.936 7.843-.77 0-1.54 1.077-2.311 3.23-1.31.384-3.006 2.076-5.087 5.075-.77 0-2.311 1.691-4.623 5.074 0 .693-1.85 2.692-5.549 5.998-.23 1.538-1.001 2.307-2.311 2.307 0 1.153-2.158 4.229-6.473 9.227-8.169 9.996-21.732 28.604-40.689 55.824-4.238 7.536-7.937 12.918-11.096 16.148h-.925L130 294.77v-.46l1.85-2.308v-.461c-.771 0-1.234-.615-1.388-1.845 0-.77 2.62-3.384 7.86-7.844.232-1.537.694-2.306 1.388-2.306h.462l.462.461h.463l27.28-36.909 15.72-19.838c3.313-4.46 5.471-6.92 6.473-7.382 0-.846.77-1.768 2.312-2.768 2.697-4.306 4.546-6.459 5.548-6.459 0-.923.77-1.692 2.312-2.307.154-1.076 3.082-4.46 8.785-10.15 0-1.153.77-2.076 2.312-2.768 0-.615 1.233-1.999 3.699-4.152 0-.846.924-1.769 2.774-2.768.693-1.769 2.08-3.307 4.161-4.614 0-1.153 1.233-2.537 3.699-4.152 1.695-3.076 3.082-4.614 4.161-4.614 2.466-3.614 5.086-6.382 7.86-8.304 0-1.076 1.85-3.076 5.549-5.998 0-1.384 3.699-5.228 11.097-11.534 0-1.23 1.079-2.306 3.236-3.23 0-.922 1.08-2.306 3.237-4.151l28.204-28.143h-1.387v-.462l4.624-7.843 2.312-.461zm-4.624 6.92v1.384h.462l.463-1.384h-.925zM138.323 292.925v.923l-.925.922v-.922l.925-.923zM266.065 101l1.849.923 2.774-.462c1.233.462 1.85 1.538 1.85 3.23l-.463 1.845.925 2.768v.923l-1.387 1.384h-.925l-2.312-1.845c0 2.768-.77 4.152-2.311 4.152l-2.312-.461-19.42 15.686-17.107 16.609c-2.08 1.46-3.622 3.306-4.624 5.536-.616 0-1.85 1.23-3.699 3.69-3.005 2-5.317 4.46-6.935 7.383-.617 0-3.237 2.614-7.86 7.843l-4.162 5.075c-.847 0-2.697 1.845-5.548 5.536-.463 0-1.233 1.076-2.312 3.23-1.541 0-2.466 1.076-2.774 3.229-1.387.923-3.7 3.537-6.936 7.843-.77 0-1.54 1.077-2.311 3.23-1.31.384-3.006 2.076-5.087 5.075-.77 0-2.311 1.691-4.623 5.074 0 .693-1.85 2.692-5.549 5.998-.23 1.538-1.001 2.307-2.311 2.307 0 1.153-2.158 4.229-6.473 9.227-8.169 9.996-21.732 28.604-40.689 55.824-4.238 7.536-7.937 12.918-11.096 16.148h-.925L101 294.77l1.85-2.768c-.771-.461-1.234-1.076-1.388-2.306 0-.77 2.62-3.384 7.86-7.844.232-1.537.694-2.306 1.388-2.306l.924.461 27.742-36.909 15.72-19.838c3.314-4.46 5.472-6.92 6.474-7.382 0-.846.77-1.768 2.312-2.768 2.697-4.306 4.546-6.459 5.548-6.459 0-.923.77-1.692 2.312-2.307.154-1.076 3.082-4.46 8.785-10.15 0-1.153.77-2.076 2.312-2.768 0-.615 1.233-1.999 3.699-4.152 0-.846.924-1.769 2.774-2.768.693-1.769 2.08-3.307 4.161-4.614 0-1.153 1.233-2.537 3.699-4.152 1.695-3.076 3.082-4.614 4.161-4.614 2.466-3.614 5.086-6.382 7.86-8.304 0-1.076 1.85-3.076 5.549-5.998 0-1.384 3.699-5.228 11.097-11.534 0-1.23 1.079-2.306 3.236-3.23 0-.922 1.08-2.306 3.237-4.151l28.204-28.143h-1.387l4.624-8.305 2.312-.461zm-4.624 6.92v1.384h.462l.463-1.384h-.925zM109.323 292.925v.923l-.925.922v-.922l.925-.923z" fill="#F5A623" mask="url(#b)"/><path d="M300.567 242.823c0 1.765-1.135 2.647-3.404 2.647H245.35a95.886 95.886 0 00-.567 10.59c0 10.148 2.41 17.949 7.233 23.401 4.822 5.452 11.677 8.179 20.564 8.179 4.476 0 8.983-1.198 13.52-3.593 4.54-2.396 8.195-5.453 10.969-9.172l.472-.189c.568 0 1.12.347 1.655 1.04.536.694.804 1.513.804 2.459 0 1.323-2.017 4.081-6.051 8.273-4.035 4.191-8.415 7.39-13.143 9.596-4.727 2.207-9.675 3.31-14.844 3.31-11.346 0-20.895-4.16-28.649-12.48-7.753-8.321-11.63-18.532-11.63-30.635 0-12.354 3.799-22.818 11.394-31.39 7.596-8.573 17.224-12.859 28.885-12.859 9.77 0 17.98 3.199 24.63 9.597 6.65 6.398 9.975 13.473 9.975 21.226zm-17.208-8.32c0-4.728-1.623-8.651-4.87-11.772-3.246-3.12-7.421-4.68-12.527-4.68-4.854 0-9.061 2.033-12.622 6.099-3.562 4.065-5.973 9.407-7.233 16.026l26.284-.757c3.971-.063 6.792-.44 8.462-1.134s2.506-1.954 2.506-3.782zM124.174 187c-1.908 0-3.642-.26-5.203-.78-11.101-3.123-16.652-9.367-16.652-18.734 0-12.142 7.632-26.191 22.896-42.15 15.264-15.957 28.967-23.936 41.109-23.936 3.99 0 7.242 1.084 9.757 3.252 2.515 2.168 3.772 4.814 3.772 7.936 0 9.713-7.328 18.993-21.985 27.84-14.657 8.846-26.582 13.269-35.775 13.269-1.388 0-2.602-.174-3.643-.52-2.601 4.683-3.902 9.626-3.902 14.83 0 9.02 4.293 13.53 12.879 13.53 8.586 0 19.73-5.812 33.433-17.433 10.58-8.5 19.6-17.519 27.059-27.059 1.561-2.081 2.905-3.122 4.033-3.122 1.127 0 1.691.52 1.691 1.56 0 1.042-.694 2.516-2.081 4.424-9.367 12.315-20.641 23.243-33.824 32.783-13.183 9.54-24.37 14.31-33.564 14.31zm49.175-74.933c0-2.081-2.212-3.122-6.635-3.122s-10.71 3.383-18.863 10.147c-10.928 9.02-19.427 18.473-25.498 28.36 1.04.347 2.168.52 3.382.52 6.592 0 15.395-3.512 26.409-10.537s17.91-14.7 20.684-23.026c.347-.867.52-1.648.52-2.342z" fill="#100F0F" mask="url(#b)"/></g></svg>
